# xmcd CD database file
#
# Track frame offsets:
#	150
#	15023
#	33626
#	50648
#	64302
#	79157
#	94194
#	112448
#	127785
#	141386
#	158947
#	176884
#	191259
#	213208
#	231033
#	251883
#	263964
#
# Disc length: 3685 seconds
#
# Revision: 0
# Processed by: cddbd v1.4PL0 Copyright (c) Steve Scherf et al.
# Submitted via: CDex 1.50Beta7
#
DISCID=f50e6311
DTITLE=Various Artist - Country Mix 1
DYEAR=2002
DGENRE=Country
TTITLE0=Courtesy Of The Red White and Blue
TTITLE1=Get Up John
TTITLE2=Long Time Gone
TTITLE3=Where The Blacktop Ends       
TTITLE4=Toby Keith - Getcha Some
TTITLE5=Barbed Wire And Roses
TTITLE6=Unbroken                      
TTITLE7=Simple Man
TTITLE8=Look What Followed Me Home
TTITLE9=You Can't Lose Me             
TTITLE10=Dream Walkin'
TTITLE11=Just Don't Wait Around Til She
TTITLE12=Everywhere
TTITLE13=Young
TTITLE14=Amy's back in Austin
TTITLE15=Get Up John
TTITLE16=The_Wonders_That_Thing_You_Do
EXTD=YEAR: 2002
EXTT0=
EXTT1=
EXTT2=
EXTT3=
EXTT4=
EXTT5=
EXTT6=
EXTT7=
EXTT8=
EXTT9=
EXTT10=
EXTT11=
EXTT12=
EXTT13=
EXTT14=
EXTT15=
EXTT16=
PLAYORDER=
